<?xml version="1.0" encoding="UTF-8" standalone="no"?>
<!DOCTYPE svg PUBLIC "-//W3C//DTD SVG 1.1//EN" "http://www.w3.org/Graphics/SVG/1.1/DTD/svg11.dtd">
<svg width="100%" height="100%" viewBox="0 0 430 474" version="1.1" xmlns="http://www.w3.org/2000/svg" xmlns:xlink="http://www.w3.org/1999/xlink" xml:space="preserve" xmlns:serif="http://www.serif.com/" style="fill-rule:evenodd;clip-rule:evenodd;stroke-linejoin:round;stroke-miterlimit:2;">
    <g transform="matrix(1,0,0,1,-285.195,-263.493)">
        <g id="Layer-1" serif:id="Layer 1">
            <g transform="matrix(1,0,0,1,706.443,611.757)">
                <path d="M0,-0.798C0,-0.765 0.027,-0.737 0.061,-0.737L0.785,-0.737C1.689,-0.737 2.426,-1.051 2.426,-1.787C2.426,-2.439 1.955,-2.873 0.905,-2.873C0.507,-2.873 0.221,-2.832 0.046,-2.788C0.019,-2.781 0,-2.757 0,-2.73L0,-0.798ZM-0.108,3.293L-1.628,3.293C-1.661,3.293 -1.688,3.265 -1.688,3.232L-1.688,-3.776C-1.688,-3.805 -1.668,-3.83 -1.64,-3.835C-0.992,-3.951 -0.103,-4.043 1.038,-4.043C2.373,-4.043 2.989,-3.827 3.507,-3.515C3.51,-3.514 3.513,-3.512 3.516,-3.509C3.899,-3.207 4.199,-2.653 4.199,-1.956C4.199,-1.172 3.596,-0.569 2.728,-0.315L2.728,-0.219C3.427,0.035 3.813,0.554 4.03,1.507C4.226,2.481 4.353,2.931 4.498,3.205C4.52,3.245 4.489,3.293 4.444,3.293L2.807,3.293C2.787,3.293 2.769,3.284 2.757,3.268C2.551,2.989 2.419,2.352 2.208,1.556C2.076,0.771 1.642,0.433 0.736,0.433L0.013,0.433C-0.021,0.433 -0.048,0.46 -0.048,0.494L-0.048,3.232C-0.048,3.265 -0.075,3.293 -0.108,3.293M-4.428,-0.436C-4.428,2.275 -2.706,4.508 -0.191,5.088C3.402,5.918 6.715,2.988 6.545,-0.695C6.406,-3.719 4.148,-6.118 1.086,-6.118C-2.087,-6.118 -4.428,-3.561 -4.428,-0.436M8.362,-0.436C8.362,3.595 5.201,6.756 1.086,6.756C-2.992,6.756 -6.25,3.595 -6.25,-0.436C-6.25,-4.381 -2.992,-7.554 1.086,-7.554C5.201,-7.554 8.362,-4.381 8.362,-0.436" style="fill:rgb(38,82,154);fill-rule:nonzero;"/>
            </g>
            <g transform="matrix(1,0,0,1,354.743,653.513)">
                <path d="M0,-26.212L0,22.309C0,22.551 -0.196,22.747 -0.438,22.747L-31.649,22.747C-31.892,22.747 -32.087,22.551 -32.087,22.309L-32.087,-26.212C-32.087,-26.23 -32.101,-26.243 -32.118,-26.243L-60.506,-26.243C-60.748,-26.243 -60.944,-26.439 -60.944,-26.681L-60.944,-48.522C-60.944,-48.763 -60.748,-48.959 -60.506,-48.959L28.308,-48.959C28.55,-48.959 28.746,-48.763 28.746,-48.522L28.746,-26.681C28.746,-26.439 28.55,-26.243 28.308,-26.243L0.03,-26.243C0.014,-26.243 0,-26.23 0,-26.212" style="fill:rgb(38,82,154);fill-rule:nonzero;"/>
            </g>
            <g transform="matrix(1,0,0,1,456.838,604.991)">
                <path d="M0,70.83L0,46.427C0,46.41 -0.014,46.396 -0.03,46.396L-28.397,46.396C-28.414,46.396 -28.428,46.41 -28.428,46.427L-28.428,70.83C-28.428,71.072 -28.624,71.268 -28.866,71.268L-59.966,71.268C-60.208,71.268 -60.405,71.072 -60.405,70.83L-60.405,0C-60.405,-0.241 -60.208,-0.438 -59.966,-0.438L-28.866,-0.438C-28.624,-0.438 -28.428,-0.241 -28.428,0L-28.428,26.448C-28.428,26.465 -28.414,26.478 -28.397,26.478L-0.03,26.478C-0.014,26.478 0,26.465 0,26.448L0,0C0,-0.241 0.196,-0.438 0.438,-0.438L31.643,-0.438C31.885,-0.438 32.081,-0.241 32.081,0L32.081,70.83C32.081,71.072 31.885,71.268 31.643,71.268L0.438,71.268C0.196,71.268 0,71.072 0,70.83" style="fill:rgb(38,82,154);fill-rule:nonzero;"/>
            </g>
            <g transform="matrix(1,0,0,1,657.466,653.513)">
                <path d="M0,-26.212L0,22.309C0,22.551 -0.196,22.747 -0.438,22.747L-31.649,22.747C-31.892,22.747 -32.088,22.551 -32.088,22.309L-32.088,-26.212C-32.088,-26.23 -32.102,-26.243 -32.118,-26.243L-60.506,-26.243C-60.748,-26.243 -60.944,-26.439 -60.944,-26.681L-60.944,-48.522C-60.944,-48.763 -60.748,-48.959 -60.506,-48.959L28.308,-48.959C28.55,-48.959 28.746,-48.763 28.746,-48.522L28.746,-26.681C28.746,-26.439 28.55,-26.243 28.308,-26.243L0.03,-26.243C0.014,-26.243 0,-26.23 0,-26.212" style="fill:rgb(38,82,154);fill-rule:nonzero;"/>
            </g>
            <g transform="matrix(1,0,0,1,556.191,633.41)">
                <path d="M0,13.992L-16.168,13.992C-16.189,13.992 -16.204,13.97 -16.195,13.95L-7.631,-5.641C-7.619,-5.665 -7.584,-5.664 -7.574,-5.639L0.028,13.951C0.036,13.971 0.021,13.992 0,13.992M45.893,42.805L12.111,-28.84C12.106,-28.85 12.096,-28.857 12.084,-28.857L-40.014,-28.857C-40.256,-28.857 -40.452,-28.66 -40.452,-28.419L-35.347,-11.246L-33.931,-6.141L-56.57,42.805C-56.58,42.826 -56.565,42.849 -56.542,42.849L-28.937,42.849C-28.924,42.849 -28.913,42.842 -28.908,42.831L-23.327,30.486C-23.322,30.475 -23.312,30.469 -23.3,30.469L6.382,30.469C6.394,30.469 6.405,30.476 6.41,30.487L11.238,42.573C11.305,42.74 11.466,42.849 11.646,42.849L45.865,42.849C45.888,42.849 45.902,42.826 45.893,42.805" style="fill:rgb(38,82,154);fill-rule:nonzero;"/>
            </g>
            <g transform="matrix(1,0,0,1,379.529,715.755)">
                <path d="M0,9.331C-0.556,16.404 -4.677,20.752 -10.909,20.752C-18.402,20.752 -22.659,14.905 -22.659,4.688C-22.659,-5.608 -18.402,-11.421 -10.818,-11.421C-6.925,-11.421 -3.973,-9.865 -2.146,-6.868C-0.931,-4.904 -0.42,-2.895 -0.136,0.67L-6.414,1.135C-6.596,-1.578 -6.789,-2.656 -7.39,-3.735C-8.185,-5.143 -9.32,-5.847 -10.762,-5.847C-14.088,-5.847 -15.45,-2.611 -15.45,5.211C-15.45,12.283 -14.088,15.178 -10.762,15.178C-8.287,15.178 -6.879,13.214 -6.369,8.911L0,9.331Z" style="fill:rgb(38,82,154);fill-rule:nonzero;"/>
            </g>
            <g transform="matrix(1,0,0,1,392.607,720.487)">
                <path d="M0,-0.135C0,7.777 1.033,10.445 4.121,10.445C7.209,10.445 8.242,7.777 8.242,-0.09C8.242,-7.855 7.164,-10.579 4.167,-10.579C1.079,-10.579 0,-7.957 0,-0.135M11.705,-13.156C14.236,-10.386 15.451,-6.175 15.451,-0.044C15.451,10.548 11.568,16.019 4.121,16.019C-3.326,16.019 -7.208,10.548 -7.208,0.058C-7.208,-10.761 -3.372,-16.154 4.257,-16.154C7.254,-16.154 9.934,-15.074 11.705,-13.156" style="fill:rgb(38,82,154);fill-rule:nonzero;"/>
            </g>
            <g transform="matrix(1,0,0,1,422.953,736.041)">
                <path d="M0,-31.23L7.969,-11.851L7.969,-31.23L13.305,-31.23L13.305,0L7.174,0L-2.293,-22.613L-2.293,0L-7.629,0L-7.629,-31.23L0,-31.23Z" style="fill:rgb(38,82,154);fill-rule:nonzero;"/>
            </g>
            <g transform="matrix(1,0,0,1,463.197,736.041)">
                <path d="M0,-31.23L0,-25.848L-11.659,-25.848L-11.659,-17.698L-2.668,-17.698L-2.668,-12.317L-11.659,-12.317L-11.659,0L-18.493,0L-18.493,-31.23L0,-31.23Z" style="fill:rgb(38,82,154);fill-rule:nonzero;"/>
            </g>
            <g transform="matrix(1,0,0,1,487.184,736.041)">
                <path d="M0,-31.23L0,-25.848L-12.124,-25.848L-12.124,-18.64L-2.667,-18.64L-2.667,-13.248L-12.124,-13.248L-12.124,-5.573L0,-5.573L0,0L-18.958,0L-18.958,-31.23L0,-31.23Z" style="fill:rgb(38,82,154);fill-rule:nonzero;"/>
            </g>
            <g transform="matrix(1,0,0,1,500.171,722.18)">
                <path d="M0,-3.508L2.997,-3.508C5.62,-3.508 7.027,-5.109 7.027,-8.049C7.027,-9.547 6.562,-10.819 5.665,-11.568C5.063,-12.078 4.211,-12.317 2.713,-12.317L0,-12.317L0,-3.508ZM2.952,-17.369C7.164,-17.369 8.526,-17.039 10.353,-15.735C12.51,-14.1 13.725,-11.329 13.725,-7.912C13.725,-3.939 12.454,-1.634 9.321,0.239L15.076,13.861L7.583,13.861L3.417,1.544L0,1.544L0,13.861L-6.834,13.861L-6.834,-17.369L2.952,-17.369Z" style="fill:rgb(38,82,154);fill-rule:nonzero;"/>
            </g>
            <g transform="matrix(1,0,0,1,540.608,736.041)">
                <path d="M0,-31.23L0,-25.848L-12.136,-25.848L-12.136,-18.64L-2.679,-18.64L-2.679,-13.248L-12.136,-13.248L-12.136,-5.573L0,-5.573L0,0L-18.97,0L-18.97,-31.23L0,-31.23Z" style="fill:rgb(38,82,154);fill-rule:nonzero;"/>
            </g>
            <g transform="matrix(1,0,0,1,554.096,736.041)">
                <path d="M0,-31.23L7.969,-11.851L7.969,-31.23L13.305,-31.23L13.305,0L7.174,0L-2.294,-22.613L-2.294,0L-7.629,0L-7.629,-31.23L0,-31.23Z" style="fill:rgb(38,82,154);fill-rule:nonzero;"/>
            </g>
            <g transform="matrix(1,0,0,1,597.428,715.755)">
                <path d="M0,9.331C-0.557,16.404 -4.678,20.752 -10.91,20.752C-18.402,20.752 -22.66,14.905 -22.66,4.688C-22.66,-5.608 -18.402,-11.421 -10.819,-11.421C-6.926,-11.421 -3.974,-9.865 -2.146,-6.868C-0.932,-4.904 -0.421,-2.895 -0.137,0.67L-6.414,1.135C-6.596,-1.578 -6.789,-2.656 -7.391,-3.735C-8.186,-5.143 -9.32,-5.847 -10.763,-5.847C-14.089,-5.847 -15.451,-2.611 -15.451,5.211C-15.451,12.283 -14.089,15.178 -10.763,15.178C-8.288,15.178 -6.88,13.214 -6.369,8.911L0,9.331Z" style="fill:rgb(38,82,154);fill-rule:nonzero;"/>
            </g>
            <g transform="matrix(1,0,0,1,623.141,736.041)">
                <path d="M0,-31.23L0,-25.848L-12.124,-25.848L-12.124,-18.64L-2.668,-18.64L-2.668,-13.248L-12.124,-13.248L-12.124,-5.573L0,-5.573L0,0L-18.959,0L-18.959,-31.23L0,-31.23Z" style="fill:rgb(38,82,154);fill-rule:nonzero;"/>
            </g>
            <g transform="matrix(1,0,0,1,371.831,528.834)">
                <path d="M0,-179.855L-61.284,-138.321L-46.96,-117.259L-25.356,-131.952L-25.457,-25.396L-77.905,-25.396L-77.905,0L-0.169,0L0,-179.855Z" style="fill:rgb(247,70,70);fill-rule:nonzero;"/>
            </g>
            <g transform="matrix(1,0,0,1,599.585,402.444)">
                <path d="M0,32.596L-7.167,44.07L-14.334,32.596L0,32.596ZM-136.213,18.105C-136.213,-27.826 -98.846,-65.193 -52.915,-65.193C-22.22,-65.193 4.648,-48.501 19.097,-23.719L5.786,-2.589L13.94,-2.589L-7.167,31.04L-28.275,-2.589L-20.121,-2.589L-43.518,-39.731L-66.915,-2.589L-58.761,-2.589L-80.845,32.596L-72.701,32.596L-95.694,69.405L-53.001,69.405L-53.001,84.985L-34.034,84.985L-34.034,69.405L12.667,69.405C-1.007,86.847 -21.478,98.713 -44.72,100.994L-61.163,100.994C-103.236,96.84 -136.213,61.252 -136.213,18.105M-182.657,100.994L-182.657,100.841C-182.625,100.893 -182.593,100.944 -182.56,100.994L-182.657,100.994ZM88.83,-41.792C81.08,-60.116 69.991,-76.566 55.873,-90.684C41.755,-104.802 25.306,-115.891 6.981,-123.641C-12.009,-131.674 -32.161,-135.746 -52.915,-135.746C-73.67,-135.746 -93.821,-131.674 -112.812,-123.641C-131.137,-115.891 -147.586,-104.802 -161.704,-90.684C-169.604,-82.784 -176.553,-74.154 -182.502,-64.874L-182.433,-138.951L-314.39,-49.209L-300.292,-28.48L-207.789,-91.048L-207.993,126.39L-44.487,126.39C-18.597,125.405 5.369,113.417 23.883,94.903C44.396,74.389 55.693,47.115 55.693,18.105C55.693,-10.906 44.396,-38.18 23.883,-58.694C3.369,-79.207 -23.905,-90.505 -52.915,-90.505C-81.926,-90.505 -109.2,-79.207 -129.714,-58.694C-150.227,-38.18 -161.524,-10.906 -161.524,18.105C-161.524,47.115 -150.227,74.389 -129.714,94.903C-127.623,96.993 -125.459,98.983 -123.233,100.879L-151.256,100.879C-170.8,77.74 -181.455,48.743 -181.455,18.105C-181.455,-16.23 -168.084,-48.508 -143.807,-72.787C-119.528,-97.065 -87.249,-110.435 -52.915,-110.435C-18.581,-110.435 13.698,-97.065 37.976,-72.787C62.254,-48.508 75.624,-16.23 75.624,18.105C75.624,52.439 62.254,84.718 37.976,108.995C16.024,130.948 -12.384,146.058 -43.107,146.276C-49.485,146.321 -53.072,146.321 -62.07,146.321L-305.659,146.321L-305.659,171.547L-64.216,171.547C-57.457,171.433 -20.387,171.433 6.981,159.851C25.304,152.096 41.755,141.011 55.873,126.894C69.991,112.776 81.08,96.325 88.83,78.001C96.862,59.011 100.936,38.859 100.936,18.105C100.936,-2.65 96.862,-22.802 88.83,-41.792" style="fill:rgb(247,70,70);fill-rule:nonzero;"/>
            </g>
        </g>
    </g>
</svg>